HIERARCHY
ROOT Hips
{
 OFFSET 0.000000 0.000000 0.000000
 CHANNELS 6 Xposition Yposition Zposition Yrotation Xrotation Zrotation
 JOINT Chest
 {
  OFFSET 0.000000 9.585900 0.002600
  CHANNELS 3 Yrotation Xrotation Zrotation
  JOINT Chest2
  {
   OFFSET 0.000000 9.601200 -0.005300
   CHANNELS 3 Yrotation Xrotation Zrotation
   JOINT Chest3
   {
    OFFSET 0.000000 9.561800 0.000000
    CHANNELS 3 Yrotation Xrotation Zrotation
    JOINT Chest4
    {
     OFFSET 0.000000 9.552100 0.000000
     CHANNELS 3 Yrotation Xrotation Zrotation
     JOINT Neck
     {
      OFFSET 0.000000 14.453000 0.000000
      CHANNELS 3 Yrotation Xrotation Zrotation
      JOINT Head
      {
       OFFSET 0.000000 8.936500 -0.011300
       CHANNELS 3 Yrotation Xrotation Zrotation
       End Site
       {
        OFFSET 0.000000 17.073600 -0.006000
       }
      }
     }
     JOINT RightCollar
     {
      OFFSET -2.921100 9.558500 0.000000
      CHANNELS 3 Yrotation Xrotation Zrotation
      JOINT RightShoulder
      {
       OFFSET -13.519700 0.000000 0.000000
       CHANNELS 3 Yrotation Xrotation Zrotation
       JOINT RightElbow
       {
        OFFSET 0.000000 -29.696600 0.000000
        CHANNELS 3 Yrotation Xrotation Zrotation
        JOINT RightWrist
        {
         OFFSET 0.000000 -24.004700 0.000000
         CHANNELS 3 Yrotation Xrotation Zrotation
         End Site
         {
          OFFSET 0.000000 -17.728500 0.000000
         }
        }
       }
      }
     }
     JOINT LeftCollar
     {
      OFFSET 2.921100 9.558500 0.000000
      CHANNELS 3 Yrotation Xrotation Zrotation
      JOINT LeftShoulder
      {
       OFFSET 13.519700 0.000000 0.000000
       CHANNELS 3 Yrotation Xrotation Zrotation
       JOINT LeftElbow
       {
        OFFSET 0.000000 -29.696600 0.000000
        CHANNELS 3 Yrotation Xrotation Zrotation
        JOINT LeftWrist
        {
         OFFSET 0.000000 -24.004700 0.000000
         CHANNELS 3 Yrotation Xrotation Zrotation
         End Site
         {
          OFFSET 0.000000 -17.728500 0.000000
         }
        }
       }
      }
     }
    }
   }
  }
 }
 JOINT RightHip
 {
  OFFSET -7.771700 -0.012900 -0.001300
  CHANNELS 3 Yrotation Xrotation Zrotation
  JOINT RightKnee
  {
   OFFSET 0.000000 -40.869800 0.001200
   CHANNELS 3 Yrotation Xrotation Zrotation
   JOINT RightAnkle
   {
    OFFSET 0.000000 -39.717900 0.002100
    CHANNELS 3 Yrotation Xrotation Zrotation
    JOINT RightToe
    {
     OFFSET 0.000000 -4.965400 11.033500
     CHANNELS 3 Yrotation Xrotation Zrotation
     End Site
     {
      OFFSET 0.000000 -1.423100 5.872300
     }
    }
   }
  }
 }
 JOINT LeftHip
 {
  OFFSET 7.771700 -0.012900 -0.001300
  CHANNELS 3 Yrotation Xrotation Zrotation
  JOINT LeftKnee
  {
   OFFSET 0.000000 -40.869800 0.001200
   CHANNELS 3 Yrotation Xrotation Zrotation
   JOINT LeftAnkle
   {
    OFFSET 0.000000 -39.717900 0.002100
    CHANNELS 3 Yrotation Xrotation Zrotation
    JOINT LeftToe
    {
     OFFSET 0.000000 -4.965400 11.033500
     CHANNELS 3 Yrotation Xrotation Zrotation
     End Site
     {
      OFFSET 0.000000 -1.423100 5.872300
     }
    }
   }
  }
 }
}
MOTION
Frames: 15
Frame Time: 0.008333
8.239910 48.940254 47.024284 172.592458 -35.277748 -7.241068 6.149303 19.160296 6.328140 0.671638 2.510053 0.659954 1.114392 4.101406 1.095581 5.131372 16.494597 5.061624 -1.183514 15.973708 0.479827 -2.399957 -5.981739 1.419744 0.154028 0.304875 -1.822524 1.191247 -4.278012 1.950089 74.690277 -80.002899 -88.277250 2.298472 -2.314056 0.057743 -10.767520 -0.018268 -1.022463 3.653737 -4.756718 -1.408927 -80.042352 -73.791355 98.393110 9.040650 -2.837302 -24.255888 3.083697 -45.216088 10.655598 -86.154346 85.267655 -74.277715 -4.008484 -9.184831 -2.401782 -0.098420 0.647601 0.024525 -9.411267 -49.441884 16.739604 -152.262504 80.481191 -159.182704 1.103547 -16.208770 7.128302 -0.068160 -0.241048 0.043301
8.248079 49.021718 47.023563 172.668007 -35.244704 -7.346500 6.095533 19.150544 6.398390 0.664577 2.520725 0.666004 1.116925 4.092800 1.090277 5.103473 16.518447 5.078323 -1.154861 15.982335 0.474133 -2.382070 -6.019591 1.382027 0.099939 0.324816 -1.814781 1.221768 -4.272572 1.999459 75.256412 -79.931577 -88.802458 2.343436 -2.215950 0.237054 -10.775904 -0.029224 -1.038496 3.725427 -4.784748 -1.327104 -80.215763 -73.770368 98.571418 8.952720 -2.613900 -24.981590 2.824865 -45.282522 10.769481 -87.687825 85.163477 -75.867507 -3.778750 -9.327830 -2.350811 -0.157071 0.700006 -0.062279 -9.571224 -49.420570 16.883089 -152.107560 80.514140 -159.072380 1.129081 -16.083683 7.126513 -0.098377 -0.363769 0.038210
8.258657 49.112029 47.021053 172.725538 -35.206498 -7.458035 6.061742 19.130813 6.485235 0.668524 2.511567 0.660722 1.109243 4.103694 1.096653 5.081993 16.535106 5.090368 -1.132672 16.023940 0.487475 -2.322663 -6.041036 1.331384 0.075377 0.330723 -1.822413 1.204177 -4.247983 2.070590 75.721367 -79.891013 -89.259951 2.394153 -2.122235 0.437864 -10.782436 -0.021928 -1.040614 3.816917 -4.830200 -1.251873 -80.417158 -73.773476 98.742076 8.885980 -2.403131 -25.663416 2.628561 -45.363714 10.881082 -88.797619 85.132911 -76.999484 -3.675983 -9.437813 -2.287225 -0.246544 0.684154 -0.138398 -9.710533 -49.398183 17.015080 -152.001982 80.556209 -158.978494 1.173111 -15.967507 7.120210 -0.133716 -0.482538 0.017662
8.265789 49.206390 47.011680 172.819000 -35.183773 -7.561051 5.987237 19.143780 6.549245 0.665959 2.512738 0.661427 1.105171 4.105516 1.097695 5.081693 16.521916 5.076704 -1.123382 16.049293 0.498482 -2.275592 -6.027967 1.304308 0.052601 0.341498 -1.822707 1.151946 -4.208376 2.148364 75.854281 -79.953894 -89.408864 2.506746 -2.071921 0.648458 -10.802565 0.012959 -1.016463 3.924082 -4.887435 -1.187635 -80.511180 -73.836232 98.771423 8.811934 -2.244311 -26.283976 2.490932 -45.416607 10.930610 -90.077168 85.032333 -78.261396 -3.580670 -9.541576 -2.241125 -0.287641 0.664532 -0.176425 -9.843603 -49.360293 17.127374 -151.996123 80.598314 -159.003553 1.132736 -15.859386 7.132620 -0.139650 -0.591992 0.015995
8.278639 49.298543 46.999430 172.911137 -35.164125 -7.685496 5.932317 19.171760 6.654523 0.664943 2.491840 0.647681 1.100703 4.107003 1.097973 5.074102 16.513833 5.064399 -1.116249 16.053359 0.496539 -2.231789 -5.993792 1.285072 -0.000466 0.370860 -1.816637 1.118513 -4.185930 2.214643 76.086902 -79.986818 -89.586373 2.542987 -1.987313 0.777712 -10.816292 0.036355 -0.994689 4.028925 -4.934736 -1.123908 -80.603295 -73.901169 98.796644 8.780552 -2.102483 -26.849880 2.362362 -45.452355 11.002069 -91.028279 84.971246 -79.173829 -3.511313 -9.652901 -2.215832 -0.314155 0.681728 -0.199518 -9.961034 -49.323749 17.264808 -151.954629 80.627872 -158.973393 1.081768 -15.739377 7.151417 -0.147441 -0.716654 0.027067
8.288755 49.382275 46.984621 172.987354 -35.134572 -7.767854 5.885263 19.169828 6.708469 0.658547 2.511344 0.661236 1.093083 4.103725 1.097404 5.045985 16.512218 5.061802 -1.097611 16.025518 0.460784 -2.226850 -5.994221 1.280137 -0.024915 0.374333 -1.841502 1.078422 -4.156156 2.279029 76.244205 -80.046445 -89.680949 2.559372 -1.906828 0.873391 -10.823460 0.039256 -0.978911 4.140034 -4.984060 -1.082861 -81.203017 -73.988141 99.322183 8.751445 -1.846703 -27.338211 2.271316 -45.484466 11.033962 -91.674814 84.964135 -79.782366 -3.517778 -9.737313 -2.235876 -0.311805 0.680444 -0.182717 -10.040218 -49.302168 17.329243 -152.033960 80.662890 -159.049472 1.052285 -15.675176 7.142482 -0.171836 -0.795200 0.026228
8.297992 49.456408 46.967054 173.063562 -35.099488 -7.825775 5.834550 19.167820 6.737434 0.655639 2.508688 0.660472 1.088531 4.099670 1.096196 5.035068 16.500089 5.053687 -1.101793 16.029854 0.462177 -2.221460 -5.999010 1.266047 -0.061044 0.390432 -1.843522 1.044587 -4.112955 2.336182 76.314201 -80.135117 -89.698330 2.555477 -1.842344 0.946730 -10.864888 0.073649 -0.927407 4.250273 -5.031497 -1.061104 -81.706512 -74.144807 99.782840 8.712624 -1.647297 -27.794157 2.203862 -45.512819 11.030187 -92.237871 84.982664 -80.300418 -3.552136 -9.815131 -2.272584 -0.321195 0.670302 -0.161052 -10.105683 -49.291790 17.354918 -152.152885 80.695261 -159.164579 1.035326 -15.631798 7.123527 -0.175466 -0.861820 0.003607
8.309776 49.521020 46.947719 173.136910 -35.060649 -7.878890 5.789663 19.164862 6.765544 0.652088 2.506108 0.659543 1.079612 4.083059 1.087902 5.027608 16.496211 5.052552 -1.108533 16.034458 0.463569 -2.239635 -5.990088 1.261465 -0.096783 0.404625 -1.862490 1.035130 -4.072347 2.389903 76.259447 -80.254859 -89.610912 2.537966 -1.805208 1.006057 -10.898069 0.086751 -0.893100 4.329821 -5.055175 -1.047253 -82.189838 -74.305628 100.251952 8.729424 -1.484290 -28.228047 2.119533 -45.528779 11.051696 -92.620169 84.996318 -80.644949 -3.654828 -9.917102 -2.315323 -0.231365 0.682757 -0.139137 -10.157511 -49.291890 17.390546 -152.118310 80.707978 -159.128619 1.004594 -15.606314 7.113503 -0.171003 -0.908303 0.007714
8.326225 49.577599 46.926479 173.219620 -35.025540 -7.948782 5.748594 19.168170 6.812981 0.638528 2.487425 0.648051 1.075020 4.079646 1.085305 5.011005 16.503337 5.053398 -1.113687 16.036491 0.460484 -2.235376 -5.997664 1.253768 -0.095306 0.396300 -1.887969 1.026187 -4.028488 2.426274 76.068684 -80.405805 -89.404140 2.511862 -1.801328 1.043058 -10.902510 0.075944 -0.882578 4.362150 -5.063436 -1.048932 -82.759059 -74.476461 100.841171 8.808000 -1.331718 -28.656321 1.916989 -45.508207 11.146054 -92.770187 85.025827 -80.826229 -3.680330 -10.039087 -2.379823 -0.187830 0.731815 -0.116036 -10.242048 -49.291115 17.467669 -151.949431 80.698396 -158.973379 0.978739 -15.587935 7.114355 -0.158009 -0.949817 0.011641
8.344663 49.622809 46.909266 173.252064 -34.959600 -7.992711 5.749109 19.138740 6.864897 0.621929 2.466076 0.634914 1.090541 4.127586 1.112373 4.960378 16.469754 5.022972 -1.122452 16.040498 0.454652 -2.288379 -5.947590 1.249220 -0.081377 0.376351 -1.912678 1.031023 -3.993395 2.438142 75.745797 -80.599006 -89.071071 2.477708 -1.828316 1.049309 -10.905070 0.052893 -0.878014 4.419554 -5.075999 -1.018119 -83.422215 -74.759664 101.488822 8.940205 -1.166075 -29.073387 1.768767 -45.546744 11.222342 -93.016732 85.055743 -81.112943 -3.579796 -10.121243 -2.435414 -0.244056 0.762667 -0.100540 -10.320157 -49.331351 17.548853 -151.873330 80.690613 -158.911654 1.014206 -15.547935 7.122419 -0.197950 -1.016067 -0.016199
8.354869 49.656725 46.894254 173.306747 -34.858568 -7.993308 5.692356 19.066645 6.839119 0.630211 2.481595 0.645919 1.084818 4.131304 1.109623 4.928601 16.467299 5.012599 -1.146363 16.075924 0.451859 -2.295728 -5.972437 1.232657 -0.070395 0.344720 -1.930472 1.048719 -3.965190 2.427679 75.284840 -80.857522 -88.595438 2.438024 -1.875847 1.037400 -10.928580 0.017786 -0.867456 4.522458 -5.107935 -0.985390 -84.177203 -75.168306 102.169238 9.118511 -0.950561 -29.469322 1.636268 -45.620548 11.229365 -93.384090 85.086833 -81.527619 -3.550339 -10.204846 -2.478078 -0.260322 0.732289 -0.104893 -10.376268 -49.419235 17.558394 -151.792344 80.682329 -158.853528 1.017856 -15.537163 7.132337 -0.213132 -1.040441 -0.032764
8.363732 49.687408 46.874025 173.368255 -34.793049 -7.981242 5.630762 19.033410 6.799478 0.638955 2.502103 0.655432 1.080823 4.130288 1.111720 4.901401 16.504454 5.008488 -1.162731 16.055598 0.437665 -2.318446 -5.981758 1.222700 -0.063609 0.288287 -1.956974 1.072778 -3.962674 2.405639 74.678300 -81.207637 -87.964693 2.389889 -1.931762 1.032684 -10.952312 -0.055690 -0.863619 4.573932 -5.123104 -0.987824 -85.165527 -75.691503 103.100598 9.343018 -0.663681 -29.841336 1.571280 -45.662089 11.177786 -93.997633 85.119990 -82.135739 -3.546115 -10.338367 -2.563595 -0.244481 0.782325 -0.064624 -10.415410 -49.477014 17.541365 -151.696999 80.664698 -158.785427 1.015080 -15.517530 7.138427 -0.213404 -1.074369 -0.038066
8.369732 49.714852 46.849798 173.444091 -34.755498 -7.955455 5.586960 19.068629 6.781077 0.623151 2.481874 0.638123 1.075585 4.129629 1.113511 4.883084 16.520680 5.001673 -1.178875 16.022555 0.421416 -2.354810 -5.957877 1.218253 -0.066927 0.258969 -1.984759 1.087722 -3.974985 2.379451 73.903142 -81.664565 -87.149440 2.313733 -1.987096 1.053497 -10.983409 -0.109243 -0.867572 4.621841 -5.140247 -0.985913 -86.344463 -76.399398 104.184081 9.609895 -0.300743 -30.184525 1.436831 -45.667164 11.129936 -94.781907 85.171346 -82.947111 -3.566247 -10.457381 -2.632006 -0.181407 0.803465 -0.060324 -10.421015 -49.513476 17.466557 -151.649610 80.649902 -158.751698 1.011126 -15.492735 7.131249 -0.207452 -1.110678 -0.028018
8.376436 49.736644 46.828093 173.497879 -34.711496 -7.923173 5.529051 19.055777 6.731610 0.632557 2.502092 0.652609 1.062550 4.110067 1.097185 4.885110 16.543256 5.009146 -1.201957 16.002152 0.407688 -2.369862 -5.957595 1.212910 -0.070464 0.239119 -2.012508 1.081780 -3.991145 2.351882 72.871480 -82.231491 -86.053103 2.188075 -2.043783 1.099271 -11.020459 -0.131366 -0.862106 4.700369 -5.198254 -0.989381 -87.685991 -77.316205 105.365566 9.912834 0.141374 -30.476662 1.326049 -45.688520 11.088457 -95.540618 85.201885 -83.734363 -3.577398 -10.569569 -2.672269 -0.170401 0.807476 -0.076940 -10.419591 -49.558799 17.405900 -151.607673 80.633494 -158.723528 0.995829 -15.480503 7.134012 -0.195323 -1.133722 -0.035067
8.386045 49.755253 46.807443 173.540000 -34.676101 -7.903735 5.505289 19.065427 6.723729 0.651754 2.540532 0.684291 1.024913 4.053549 1.049002 4.894646 16.561792 5.020722 -1.231397 16.007323 0.396607 -2.432421 -5.950658 1.201142 -0.074611 0.219434 -2.045193 1.057354 -4.008164 2.326352 71.416339 -82.914690 -84.509911 2.008184 -2.108827 1.160969 -11.044757 -0.161767 -0.863917 4.763945 -5.259910 -0.984120 -89.270565 -78.436084 106.753864 10.242761 0.663384 -30.682605 1.251337 -45.713551 11.050427 -96.334172 85.210116 -84.531047 -3.561768 -10.671066 -2.714493 -0.237662 0.805626 -0.084746 -10.475252 -49.591745 17.422582 -151.461279 80.597244 -158.637386 1.003375 -15.463604 7.154040 -0.226459 -1.167763 -0.045960
